<svg width="40" height="40" fill="none" xmlns="http://www.w3.org/2000/svg"><g clip-path="url(#clip0_396_131)" fill="#323750" stroke="#323750" stroke-width=".5"><path d="M29.031 29.337a.61.61 0 00-.61.609v.61h-1.218a.61.61 0 000 1.218h4.875a.61.61 0 000-1.219h-2.437v-.61a.61.61 0 00-.61-.608zM7.094 30.555a.61.61 0 000 1.22h4.875a.61.61 0 000-1.22H7.094zm12.381-9.445a5.467 5.467 0 003.595-1.342c2.18-1.87 3.657-4.764 4.394-7.566a10.47 10.47 0 00.348-2.653C27.812 4.828 24.13 1 19.586 1a8.04 8.04 0 00-5.712 2.397A8.688 8.688 0 0011.36 9.55c0 3.18 1.296 6.827 3.315 9.23a6.34 6.34 0 004.8 2.33h0zM14.737 4.258v0a6.814 6.814 0 014.849-2.039c3.864 0 7.007 3.289 7.007 7.331v0a9.214 9.214 0 01-.308 2.342c-.759 2.885-2.22 5.418-4.009 6.95v.001a4.258 4.258 0 01-2.802 1.048 5.095 5.095 0 01-3.867-1.894c-1.812-2.157-3.03-5.551-3.03-8.447a7.434 7.434 0 012.16-5.292h0z"/><path d="M28.628 21.804c-1.73-.317-2.697-1.535-3.234-2.684-.08.098-.167.194-.252.291l-4.146 3.814v0a1.582 1.582 0 00-.316.627h-2.408a1.565 1.565 0 00-.286-.513l-4.412-4.057-.243.479a4.36 4.36 0 01-.647.939 4.05 4.05 0 01-2.14 1.104S1.444 23.298 1 30.41c0 0 .001 4.095.008 7.536A2.026 2.026 0 003 40h14.313s-1.163-1.158-1.215-1.219H3a.81.81 0 01-.773-.838 4413.12 4413.12 0 01-.008-7.494c.407-6.015 8.443-7.43 8.523-7.443l.01-.002.012-.002h0c.312-.057.618-.14.915-.248l3.398 5.072a.86.86 0 00.748.596.923.923 0 00.697-.395l.844-1.443.576 1.096-1.377 8.592a2.208 2.208 0 00.545 1.818l1.554 1.53h0a1.335 1.335 0 001.862 0l1.555-1.53v0a2.166 2.166 0 00.517-1.824l-1.632-8.492.704-1.213.79 1.351c.16.231.417.377.697.395a.858.858 0 00.748-.596l3.377-5.041c.362.15.74.261 1.126.332l.011.002.01.001c.08.014 8.116 1.428 8.524 7.444 0 .432-.003 4.294-.01 7.495h0a.809.809 0 01-.772.837h-13.08c-.05.06-1.213 1.218-1.213 1.218h14.294a2.025 2.025 0 001.991-2.053c.007-3.397.01-7.537.01-7.537-.445-7.112-9.545-8.606-9.545-8.606h0zm-9.72 5.095l-.813-1.546c.059-.089.108-.184.147-.282h2.546c.048.1.106.195.174.282l-.897 1.546h-1.158zm-1.946-2.038l-1.121 1.916-3.041-4.54a5.49 5.49 0 00.619-.543c.163-.15.317-.308.461-.475l3.204 2.947a.544.544 0 01-.018.545l-.058.07-.046.08zm4.264 12.361l-1.554 1.53a.111.111 0 01-.153 0l-1.554-1.53a1.046 1.046 0 01-.197-.752l1.337-8.352h.686l1.611 8.384a.97.97 0 01-.176.72h0zm1.915-10.559l-1.121-1.916-.047-.079-.057-.07h0a.544.544 0 01-.018-.546l3.227-2.968c.304.392.66.741 1.058 1.038l-3.042 4.541z"/></g><defs><clipPath id="clip0_396_131"><path fill="#fff" d="M0 0h40v40H0z"/></clipPath></defs></svg>