<svg width="40" height="40" fill="none" xmlns="http://www.w3.org/2000/svg"><path d="M8.853 4A2.437 2.437 0 006.43 6.429v4.002H2.422A2.432 2.432 0 000 12.854v19.75a2.435 2.435 0 002.422 2.427h28.725a2.44 2.44 0 002.428-2.427V28.6h4.002A2.431 2.431 0 0040 26.178V6.43A2.437 2.437 0 0037.577 4H8.853zm0 1.428h28.724c.565 0 .996.436.996 1v19.75a.977.977 0 01-.996.995h-4.002V12.854a2.444 2.444 0 00-2.428-2.423H7.857V6.429c0-.565.43-1 .996-1zm-6.431 6.43h28.725c.565 0 1 .435 1 1v3.54H1.428v-3.544c0-.565.43-.996.995-.996zm-.995 5.968h30.721v2.727H1.428l-.001-2.727zm0 4.155h30.721v10.623c0 .566-.435 1-1 1H2.423a.98.98 0 01-.996-1V21.981zm21.02 3.091a.713.713 0 00-.71.716v3.697c0 .393.317.711.71.713h5.145a.714.714 0 00.712-.713v-3.697a.713.713 0 00-.712-.716h-5.145zm-16.449.59a.714.714 0 000 1.428h7.485a.714.714 0 000-1.428H5.998zm17.165.837h3.712v2.27h-3.712V26.5zM5.998 28.875a.712.712 0 00-.515 1.224.714.714 0 00.515.203h3.199a.714.714 0 100-1.427h-3.2z" fill="#323750"/></svg>