<svg width="40" height="40" fill="none" xmlns="http://www.w3.org/2000/svg"><path d="M20.305 6.047A13.956 13.956 0 006.352 20a13.956 13.956 0 0013.953 13.953A13.956 13.956 0 0034.258 20 13.961 13.961 0 0020.305 6.047zm0 26.219a12.273 12.273 0 118.676-3.59 12.282 12.282 0 01-8.676 3.598v-.008z" fill="#323750"/><path d="M38.904 18.16a5.433 5.433 0 00-2.47-7.602 3.771 3.771 0 01-2.159-2.974 5.437 5.437 0 00-6.469-4.696 3.781 3.781 0 01-3.503-1.134 5.436 5.436 0 00-7.997 0 3.78 3.78 0 01-3.503 1.134 5.434 5.434 0 00-6.469 4.696 3.78 3.78 0 01-2.167 2.974 5.435 5.435 0 00-2.47 7.602 3.782 3.782 0 010 3.68 5.433 5.433 0 002.47 7.602 3.772 3.772 0 012.16 2.974 5.438 5.438 0 006.468 4.696 3.781 3.781 0 013.503 1.134 5.436 5.436 0 007.997 0 3.78 3.78 0 013.503-1.134 5.433 5.433 0 006.468-4.696c.16-1.3.98-2.425 2.168-2.974a5.437 5.437 0 002.47-7.602 3.782 3.782 0 010-3.68zm-1.462 4.503a3.752 3.752 0 01-1.68 5.25 5.467 5.467 0 00-3.133 4.31 3.756 3.756 0 01-4.47 3.251 5.477 5.477 0 00-5.04 1.68 3.757 3.757 0 01-5.528 0 5.478 5.478 0 00-5.065-1.646 3.752 3.752 0 01-4.47-3.251 5.468 5.468 0 00-3.133-4.31 3.755 3.755 0 01-1.68-5.25 5.469 5.469 0 000-5.326 3.754 3.754 0 011.68-5.25 5.47 5.47 0 003.133-4.31 3.756 3.756 0 014.47-3.251 5.468 5.468 0 005.04-1.68 3.756 3.756 0 015.528 0 5.468 5.468 0 005.04 1.68 3.757 3.757 0 014.47 3.25 5.469 5.469 0 003.133 4.31 3.753 3.753 0 011.68 5.25 5.47 5.47 0 00.025 5.293z" fill="#323750"/><path d="M25.279 12.44l-7.737 7.746-2.193-2.361a.843.843 0 00-.613-.27.842.842 0 00-.613.27l-2.79 3.016a.84.84 0 000 1.167l5.613 5.553a.838.838 0 00.595.244.838.838 0 00.597-.244l11.123-11.147a.84.84 0 000-1.193l-2.798-2.78a.84.84 0 00-1.184 0zm-7.77 13.332l-4.395-4.402 1.622-1.74 2.21 2.336a.839.839 0 00.595.269.9.9 0 00.614-.244l7.754-7.761 1.57 1.57-9.97 9.972z" fill="#323750"/></svg>