<svg width="40" height="40" fill="none" xmlns="http://www.w3.org/2000/svg"><g clip-path="url(#clip0_396_95)" fill="#323750" stroke="#323750" stroke-width=".3"><path d="M4 27.291C4 34.655 10.798 40 20.164 40c9.366 0 16.164-5.345 16.164-12.709 0-5.519-5.728-13.93-10.963-18.044h1.567V7.905h-2.537l1.922-3.37a2.18 2.18 0 00-.051-2.283 2.24 2.24 0 00-2.07-1.032c-.553.043-1.15.065-1.773.065-3.302 0-4.972-.61-6.446-1.148a2.198 2.198 0 00-2.454.654 2.203 2.203 0 00-.233 2.536l2.612 4.578h-2.505v1.342h1.567C9.728 13.362 4 21.773 4 27.291h0zm10.454-24.63a.86.86 0 01.093-1.005.852.852 0 01.97-.259c1.5.548 3.366 1.23 6.905 1.23.659 0 1.29-.023 1.877-.07a.887.887 0 01.833.413.852.852 0 01.019.9l-2.302 4.035h-5.403l-2.992-5.243zm2.834 6.586h5.752c5.261 3.26 11.946 12.496 11.946 18.043 0 6.587-6.234 11.367-14.822 11.367-8.589 0-14.823-4.78-14.823-11.367 0-5.547 6.685-14.784 11.946-18.043h0z"/><path d="M17.956 24.14c.517.438 1.187.68 1.888.68h.305v5.726a3.089 3.089 0 01-2.413-3.012h-1.341a4.426 4.426 0 003.754 4.372v2.349h1.342v-2.346c1.911-.288 3.461-1.853 3.716-3.775a4.43 4.43 0 00-1.522-3.975 2.916 2.916 0 00-1.888-.68h-.306v-5.726a3.089 3.089 0 012.414 3.012h1.341a4.42 4.42 0 00-3.755-4.373v-2.349h-1.342v2.346c-1.91.289-3.461 1.853-3.716 3.776a4.429 4.429 0 001.523 3.974h0zm3.84.68c.383 0 .746.129 1.02.362a3.09 3.09 0 011.06 2.776c-.168 1.27-1.148 2.314-2.385 2.588V24.82h.306zm-4.032-4.48c.168-1.268 1.148-2.313 2.385-2.587v5.725h-.306a1.57 1.57 0 01-1.018-.362 3.093 3.093 0 01-1.06-2.775z"/></g><defs><clipPath id="clip0_396_95"><path fill="#fff" d="M0 0h40v40H0z"/></clipPath></defs></svg>