<svg width="40" height="40" fill="none" xmlns="http://www.w3.org/2000/svg"><path d="M38.39 28.9h-1.534a.77.77 0 010-1.538h1.534a.07.07 0 00.07-.07v-7.376c0-.09-.008-.181-.026-.27l-1.298-6.655a1.166 1.166 0 00-1.142-.94h-7.1a.79.79 0 00-.79.787v14.524h1.799a.77.77 0 110 1.538h-2.567a.77.77 0 01-.77-.769V12.838a2.33 2.33 0 012.327-2.327h7.101a2.71 2.71 0 012.653 2.188l1.298 6.654c.036.185.054.374.054.563v7.374a1.612 1.612 0 01-1.608 1.61z" fill="#323750"/><path d="M39.22 20.474h-7.567c-1.282 0-2.325-1.075-2.325-2.397V15.46c0-1.322 1.044-2.397 2.326-2.397h6.43a.77.77 0 010 1.538h-6.43c-.433 0-.787.385-.787.86v2.616c0 .474.352.859.786.859h7.566a.77.77 0 110 1.538zm-7.988 2.124h-1.135a.77.77 0 110-1.538h1.135a.769.769 0 110 1.538zm2.148 9.742a4.247 4.247 0 110-8.494 4.247 4.247 0 010 8.494zm0-6.954a2.708 2.708 0 100 5.417 2.708 2.708 0 000-5.416zM8.062 32.34a4.247 4.247 0 11.001-8.495 4.247 4.247 0 010 8.495zm0-6.954a2.708 2.708 0 100 5.417 2.708 2.708 0 000-5.416z" fill="#323750"/><path d="M27.338 28.9H11.54a.77.77 0 110-1.538h15.03V9.16a.622.622 0 00-.622-.622H2.16a.622.622 0 00-.621.622v18.131c0 .039.03.07.07.07h2.98a.77.77 0 110 1.539H1.61A1.611 1.611 0 010 27.29V9.16A2.164 2.164 0 012.16 7h23.787a2.165 2.165 0 012.16 2.16v18.971a.769.769 0 01-.77.77z" fill="#323750"/></svg>