<svg width="40" height="40" fill="none" xmlns="http://www.w3.org/2000/svg"><path d="M38.761 17.142l-5.57-8.473a1.481 1.481 0 00-2.052-.425l-2.982 1.952a1.486 1.486 0 00-.444 2.019l-.83.537c-4.243-1.434-7.656-1.215-9.329-.949a3.5 3.5 0 00-1.348.531h-.013l-1.859.32c-.624.112-1.255-.027-1.8-.353a1.51 1.51 0 00.18-.976 1.499 1.499 0 00-.604-.963L9.195 8.304a1.48 1.48 0 00-2.065.358L1.273 16.95a1.493 1.493 0 00-.252 1.108 1.5 1.5 0 00.604.963l2.909 2.059c.259.186.558.272.856.272.398 0 .79-.172 1.076-.478l1.5 1.135-.683.81a1.933 1.933 0 00.252 2.716c.339.279.75.425 1.162.439-.04.192-.06.385-.047.584a1.92 1.92 0 002.683 1.587c.086.412.298.797.644 1.082a1.918 1.918 0 002.038.266c.093.392.305.757.637 1.036.346.292.777.445 1.229.445.06 0 .119 0 .179-.007a1.893 1.893 0 001.295-.67l.577-.638c.013-.013.02-.034.034-.053l1.447 1.095a2.014 2.014 0 001.487.379 1.963 1.963 0 001.335-.79 1.99 1.99 0 00.392-1.016l.856.637c.007 0 .007.007.013.007.432.318.963.451 1.488.371.53-.08.996-.358 1.321-.783a1.97 1.97 0 00.392-1.036c.365.18.77.246 1.175.186.498-.073.95-.332 1.269-.724a1.95 1.95 0 00.418-1.488 2.18 2.18 0 00-.153-.577 2.012 2.012 0 001.215-.764 2.01 2.01 0 00.292-1.793c.299-.737 1.195-1.56 2.563-2.35a1.492 1.492 0 001.062.445c.286 0 .565-.086.81-.246l2.975-1.952c.332-.219.558-.55.637-.942a1.41 1.41 0 00-.199-1.123h0zm-33.663 3.14L2.19 18.224a.496.496 0 01-.206-.332.508.508 0 01.086-.378l5.856-8.28a.513.513 0 01.71-.12l2.916 2.06a.494.494 0 01.206.331.507.507 0 01-.087.379l-5.856 8.279a.524.524 0 01-.717.12zm3.06 4.502a.957.957 0 01-.126-1.341l1.56-1.84a.917.917 0 01.651-.338c.034 0 .06-.007.093-.007.226 0 .439.08.611.226.193.16.319.385.346.644a.937.937 0 01-.213.69l-1.567 1.84a.973.973 0 01-1.354.126zm1.807 2.324a.911.911 0 01-.339-.644.944.944 0 01.213-.697l2.901-3.387a.91.91 0 01.644-.338c.034 0 .06-.007.093-.007a.97.97 0 01.611.219c.2.166.319.392.339.637v.007a.944.944 0 01-.213.697l-2.901 3.38a.953.953 0 01-1.348.133zm2.636 1.368a.957.957 0 01-.126-1.342l1.593-1.866a.94.94 0 011.315-.093c.192.16.312.392.338.645a.92.92 0 01-.212.69l-1.567 1.84a.956.956 0 01-1.341.126zm4.03 1.175a.913.913 0 01-.65.338.973.973 0 01-.704-.219c-.392-.325-.465-.896-.173-1.281l.604-.67a.766.766 0 01.193-.173.94.94 0 01.551-.18c.22 0 .432.073.61.22.2.166.32.392.34.637a.97.97 0 01-.054.412 1.002 1.002 0 01-.146.279l-.57.637zm13.227-5.146a1.05 1.05 0 01-.704.405.984.984 0 01-.69-.146l-5.438-4.05a.49.49 0 00-.684.1.495.495 0 00.1.683l5.716 4.256c.252.186.418.478.452.79a1.01 1.01 0 01-.206.757 1.006 1.006 0 01-.657.372 1.027 1.027 0 01-.777-.2l-.87-.644c-.02-.013-.046-.02-.066-.033a.5.5 0 00-.126-.14l-4.37-3.246a.495.495 0 00-.683.1.487.487 0 00.1.677l4.369 3.247c.026.02.053.026.086.04a.273.273 0 00.046.073 1.043 1.043 0 01-.61 1.752 1.027 1.027 0 01-.777-.199l-2.225-1.653-3.114-2.318a.495.495 0 00-.683.1.487.487 0 00.1.677l3.113 2.318a1.05 1.05 0 01.2 1.46 1.009 1.009 0 01-.691.406 1.013 1.013 0 01-.764-.193l-1.64-1.242a1.894 1.894 0 00-.677-1.74 1.928 1.928 0 00-1.082-.43 1.9 1.9 0 00.086-.771A1.91 1.91 0 0015.105 24a1.85 1.85 0 00.286-1.195 1.894 1.894 0 00-.69-1.308 1.909 1.909 0 00-2.55.086 1.87 1.87 0 00-.598-.87 1.9 1.9 0 00-1.408-.438 1.912 1.912 0 00-1.308.684l-.239.285-1.547-1.175 4.927-6.965c.75.47 1.653.65 2.523.497l.544-.093-2.184 2.862a1.333 1.333 0 00.299 1.912 3.157 3.157 0 004.329-.743l1.547-2.138 10.955 8.134c.113.346.066.705-.133.97h0zm.365-1.992l-11.002-8.166a.51.51 0 00-.292-.093c-.026 0-.046 0-.073.006a.5.5 0 00-.319.193l-1.84 2.543a2.17 2.17 0 01-2.98.511.368.368 0 01-.16-.298c0-.08.027-.16.08-.226l2.49-3.267a2.46 2.46 0 011.574-.943c1.613-.259 4.94-.471 9.082.983a.46.46 0 00.425-.053l1.03-.67 3.79 5.756.89 1.354c-1.307.777-2.217 1.567-2.695 2.37h0zm7.802-4.455a.526.526 0 01-.22.325l-2.974 1.952a.523.523 0 01-.385.073.526.526 0 01-.326-.219l-.092-.14-.797-1.208-4.688-7.117a.512.512 0 01.146-.704l2.981-1.952a.547.547 0 01.28-.086c.165 0 .331.08.424.232l5.57 8.473c.08.1.107.239.08.371h0z" fill="#323750" stroke="#323750" stroke-width=".3"/></svg>