<svg width="29" height="29" fill="none" xmlns="http://www.w3.org/2000/svg"><g clip-path="url(#clip0_396_1302)"><path d="M24.61 4.232C21.947 1.49 18.263 0 14.5 0 6.505 0 .078 6.505.157 14.422c0 2.508.705 4.938 1.88 7.132L0 29l7.603-1.96c2.116 1.176 4.467 1.725 6.819 1.725 7.916 0 14.343-6.506 14.343-14.422 0-3.84-1.49-7.446-4.154-10.11zM14.5 26.335c-2.116 0-4.232-.549-6.035-1.646l-.47-.235-4.546 1.176 1.175-4.468-.313-.47C.862 15.127 2.508 7.759 8.15 4.31 13.795.862 21.084 2.508 24.532 8.15c3.45 5.644 1.803 12.933-3.84 16.381-1.803 1.176-3.997 1.803-6.192 1.803zm6.897-8.7l-.862-.392s-1.254-.548-2.038-.94c-.078 0-.157-.079-.235-.079-.235 0-.392.079-.549.157 0 0-.078.078-1.175 1.332a.43.43 0 01-.392.236h-.078c-.079 0-.236-.079-.314-.157l-.392-.157c-.862-.392-1.646-.862-2.273-1.49-.157-.156-.392-.313-.549-.47-.548-.548-1.097-1.175-1.489-1.88l-.078-.157c-.078-.079-.078-.157-.157-.314 0-.156 0-.313.079-.392 0 0 .313-.392.548-.627.157-.156.235-.391.392-.548.157-.235.235-.549.157-.784-.079-.392-1.019-2.508-1.254-2.978-.157-.236-.314-.314-.549-.392h-.862c-.157 0-.313.078-.47.078l-.079.078c-.156.079-.313.236-.47.314-.157.157-.235.313-.392.47-.548.706-.862 1.568-.862 2.43 0 .627.157 1.254.392 1.803l.078.235a13.058 13.058 0 002.9 3.997l.314.314c.235.235.47.392.627.627 1.646 1.41 3.527 2.43 5.643 2.978.235.078.549.078.784.157h.784c.392 0 .862-.157 1.175-.314.235-.157.392-.157.549-.313l.157-.157c.156-.157.313-.235.47-.392.157-.157.314-.313.392-.47.157-.314.235-.706.313-1.098v-.548s-.078-.079-.235-.157z" fill="#fff"/></g><defs><clipPath id="clip0_396_1302"><path fill="#fff" d="M0 0h29v29H0z"/></clipPath></defs></svg>