<svg width="40" height="40" fill="none" xmlns="http://www.w3.org/2000/svg"><g clip-path="url(#clip0_396_1293)" stroke="#fff" stroke-width="2" stroke-linecap="round" stroke-linejoin="round"><path d="M30.191 11.944l-3.699 6.235 6.235 3.699m3.699-6.235l-9.934 2.536m.734 12.969l-1.85 3.117a2.417 2.417 0 01-3.498.734 23.914 23.914 0 01-7.075-8.51 23.562 23.562 0 01-2.536-9.936 23.912 23.912 0 012.155-10.902 2.417 2.417 0 013.412-1.039l3.118 1.85a2.417 2.417 0 011.018 3.02c-.46 1.076-.798 2.2-1.005 3.352a2.416 2.416 0 01-1.77 1.916l-2.102.536a19.333 19.333 0 002.536 9.935l2.103-.537a2.416 2.416 0 012.47.833 15.52 15.52 0 002.488 2.46 2.416 2.416 0 01.536 3.17z"/></g><defs><clipPath id="clip0_396_1293"><path fill="#fff" transform="rotate(30.681 7.398 26.97)" d="M0 0h29v29H0z"/></clipPath></defs></svg>