<svg width="43" height="43" fill="none" xmlns="http://www.w3.org/2000/svg"><path d="M37.818 8.101h-8.64a3.844 3.844 0 00-3.09-1.558H4.782a3.852 3.852 0 00-3.848 3.849v15.676a3.853 3.853 0 003.847 3.848h2.014v6.285h0a.731.731 0 001.226.54l7.472-6.824h12.355l6.925 6.327a.732.732 0 001.226-.54v-5.787h1.818a3.63 3.63 0 003.627-3.626V11.727A3.631 3.631 0 0037.817 8.1h0zm-22.61 20.352a.727.727 0 00-.493.192L8.26 34.542v-5.357a.733.733 0 00-.732-.732H4.782A2.386 2.386 0 012.4 26.069V10.393a2.386 2.386 0 012.383-2.384H26.09a2.385 2.385 0 012.383 2.383V26.07a2.386 2.386 0 01-2.383 2.384H15.21zm24.772-2.162a2.165 2.165 0 01-2.163 2.162h-2.55a.732.732 0 00-.732.732v4.855l-5.739-5.24a3.836 3.836 0 001.14-2.73V10.393a3.824 3.824 0 00-.093-.826h7.974a2.165 2.165 0 012.163 2.162V26.29zM22.65 15.316a.732.732 0 01-.732.732H8.65a.732.732 0 110-1.464h13.267c.404 0 .731.328.731.732zm-3.469 5.578h0a.732.732 0 01-.732.732H8.651a.732.732 0 010-1.464h9.799c.404 0 .732.328.732.732h-.001z" fill="#fff" stroke="#fff" stroke-width=".5"/></svg>