<svg width="19" height="19" fill="none" xmlns="http://www.w3.org/2000/svg"><path d="M9.546 1.748h3.798c.894 0 1.34.223 1.676.335.447.223.782.335 1.117.67.335.335.559.67.67 1.117.112.335.224.782.335 1.676v7.597c0 .893-.223 1.34-.335 1.675-.223.447-.335.783-.67 1.118-.335.335-.67.558-1.117.67-.335.112-.782.223-1.676.335H5.748c-.894 0-1.341-.223-1.676-.335-.447-.224-.782-.335-1.117-.67-.336-.335-.559-.67-.67-1.117-.112-.336-.224-.783-.336-1.676V5.546c0-.894.224-1.34.335-1.676.224-.447.335-.782.67-1.117.336-.335.67-.558 1.118-.67.335-.112.782-.224 1.675-.335h3.799zm0-1.676H5.748a5.6 5.6 0 00-2.235.447 4.878 4.878 0 00-1.676 1.117C1.28 2.195 1.055 2.641.72 3.312.497 3.87.385 4.54.273 5.546v7.597c0 1.005.224 1.675.447 2.234a4.878 4.878 0 001.117 1.676c.559.558 1.006.782 1.676 1.117.559.223 1.23.335 2.234.447h7.598c1.006 0 1.676-.224 2.235-.447a4.88 4.88 0 001.675-1.117c.559-.559.782-1.006 1.117-1.676.224-.559.335-1.229.447-2.234V5.546a5.594 5.594 0 00-.447-2.234 4.877 4.877 0 00-1.117-1.676c-.558-.559-1.005-.782-1.676-1.117C15.02.295 14.35.184 13.345.072H9.546z" fill="#323750"/><path d="M9.546 4.54a4.768 4.768 0 00-4.804 4.804 4.768 4.768 0 004.804 4.804 4.768 4.768 0 004.804-4.804 4.768 4.768 0 00-4.804-4.803zm0 7.932a3.122 3.122 0 01-3.128-3.128 3.123 3.123 0 013.128-3.128 3.123 3.123 0 013.128 3.128c0 1.676-1.452 3.128-3.128 3.128zm4.915-6.926a1.117 1.117 0 100-2.234 1.117 1.117 0 000 2.234z" fill="#323750"/></svg>