<svg width="20" height="21" fill="none" xmlns="http://www.w3.org/2000/svg"><g clip-path="url(#clip0_396_1269)"><mask id="mask0_396_1269" style="mask-type:luminance" maskUnits="userSpaceOnUse" x="1" y="1" width="18" height="19"><path d="M19 1.5H1v18h18v-18z" fill="#fff"/></mask><g mask="url(#mask0_396_1269)"><path d="M17.498 14.19v2.25a1.499 1.499 0 01-1.635 1.5 14.843 14.843 0 01-6.472-2.302 14.625 14.625 0 01-4.5-4.5 14.843 14.843 0 01-2.303-6.503A1.5 1.5 0 014.081 3h2.25a1.5 1.5 0 011.5 1.29 9.63 9.63 0 00.525 2.108 1.5 1.5 0 01-.338 1.582l-.952.953a12 12 0 004.5 4.5l.952-.953a1.5 1.5 0 011.583-.337c.68.253 1.387.43 2.107.525a1.5 1.5 0 011.29 1.522z" stroke="#fff" stroke-width="2" stroke-linecap="round" stroke-linejoin="round"/></g></g><defs><clipPath id="clip0_396_1269"><path fill="#fff" transform="translate(1 1.5)" d="M0 0h18v18H0z"/></clipPath></defs></svg>