<svg width="20" height="21" fill="none" xmlns="http://www.w3.org/2000/svg"><path d="M16.276 4.627C14.622 2.924 12.336 2 10 2c-4.962 0-8.951 4.038-8.903 8.951 0 1.557.438 3.065 1.168 4.427L1 20l4.719-1.216c1.313.73 2.773 1.07 4.232 1.07 4.914 0 8.903-4.038 8.903-8.951a8.829 8.829 0 00-2.578-6.276zM10 18.346c-1.314 0-2.627-.34-3.746-1.022l-.292-.146-2.821.73.73-2.773-.195-.292c-2.14-3.454-1.12-8.027 2.383-10.167 3.503-2.14 8.027-1.12 10.168 2.383 2.14 3.503 1.119 8.027-2.384 10.168-1.119.73-2.48 1.119-3.843 1.119zm4.281-5.4l-.535-.243s-.778-.34-1.265-.584c-.049 0-.097-.049-.146-.049a.703.703 0 00-.34.098s-.05.048-.73.827a.268.268 0 01-.243.146h-.049a.368.368 0 01-.195-.098l-.243-.097c-.535-.243-1.021-.535-1.41-.924-.098-.098-.244-.195-.341-.292-.34-.34-.681-.73-.925-1.168l-.048-.097c-.049-.049-.049-.097-.097-.195 0-.097 0-.194.048-.243 0 0 .195-.243.34-.39.098-.096.147-.242.244-.34.097-.146.146-.34.097-.486-.048-.243-.632-1.557-.778-1.849-.097-.146-.195-.194-.34-.243h-.536c-.097 0-.194.049-.292.049l-.048.048c-.098.049-.195.146-.292.195-.098.097-.146.194-.243.292a2.48 2.48 0 00-.536 1.508c0 .389.098.778.244 1.119l.048.146a8.106 8.106 0 001.8 2.48l.195.195c.146.146.292.244.39.39a8.693 8.693 0 003.502 1.848c.146.049.34.049.486.097h.487c.243 0 .535-.097.73-.194.145-.097.243-.097.34-.195l.097-.097c.098-.097.195-.146.292-.243.097-.098.195-.195.243-.292.098-.195.146-.438.195-.681v-.34s-.049-.05-.146-.098z" fill="#fff"/></svg>