<svg width="230" height="73" fill="none" xmlns="http://www.w3.org/2000/svg"><g clip-path="url(#clip0_396_4)"><mask id="mask0_396_4" style="mask-type:luminance" maskUnits="userSpaceOnUse" x="0" y="0" width="230" height="73"><path d="M230 0H0v73h230V0z" fill="#fff"/></mask><g mask="url(#mask0_396_4)"><path fill-rule="evenodd" clip-rule="evenodd" d="M1.06 73c21.683 0 38.562-18.445 49.843-36.963C64.066 14.429 87.847 0 115 0c27.152 0 50.934 14.429 64.098 36.037C190.378 54.555 207.257 73 228.94 73H488c21.539 0 39 17.46 39 39 0 21.539-17.461 39-39 39h-746c-21.539 0-39-17.461-39-39 0-21.54 17.461-39 39-39H1.06z" fill="#fff"/></g></g><defs><clipPath id="clip0_396_4"><path fill="#fff" d="M0 0h230v73H0z"/></clipPath></defs></svg>